<?xml version="1.0" encoding="utf-8"?>
<svg version="1.1" xmlns:xlink="http://www.w3.org/1999/xlink" width="22px" height="22px" xmlns="http://www.w3.org/2000/svg">
  <g transform="matrix(1 0 0 1 -66 -255 )">
    <path d="M 21.953125 17.046875  C 21.984375 17.1197916666667  22 17.2291666666667  22 17.375  C 22 17.65625  21.9479166666667 18.0234375  21.84375 18.4765625  C 21.7395833333333 18.9296875  21.6302083333333 19.2864583333333  21.515625 19.546875  C 21.296875 20.0677083333333  20.6614583333333 20.6197916666667  19.609375 21.203125  C 18.6302083333333 21.734375  17.6614583333333 22  16.703125 22  C 16.421875 22  16.1458333333333 21.9817708333333  15.875 21.9453125  C 15.6041666666667 21.9088541666667  15.3046875 21.84375  14.9765625 21.75  C 14.6484375 21.65625  14.4036458333333 21.5807291666667  14.2421875 21.5234375  C 14.0807291666667 21.4661458333333  13.7916666666667 21.359375  13.375 21.203125  C 12.9583333333333 21.046875  12.703125 20.953125  12.609375 20.921875  C 11.5885416666667 20.5572916666667  10.6770833333333 20.125  9.875 19.625  C 8.55208333333333 18.8020833333333  7.17708333333333 17.6770833333333  5.75 16.25  C 4.32291666666667 14.8229166666667  3.19791666666667 13.4479166666667  2.375 12.125  C 1.875 11.3229166666667  1.44270833333333 10.4114583333333  1.078125 9.390625  C 1.046875 9.296875  0.953125 9.04166666666666  0.796875 8.625  C 0.640625 8.20833333333333  0.533854166666667 7.91927083333333  0.4765625 7.7578125  C 0.419270833333333 7.59635416666667  0.34375 7.3515625  0.25 7.0234375  C 0.15625 6.6953125  0.0911458333333333 6.39583333333333  0.0546875 6.125  C 0.0182291666666667 5.85416666666666  0 5.578125  0 5.296875  C 0 4.33854166666667  0.265625 3.36979166666666  0.796875 2.390625  C 1.38020833333333 1.33854166666666  1.93229166666667 0.703125  2.453125 0.484374999999999  C 2.71354166666667 0.369791666666665  3.0703125 0.260416666666664  3.5234375 0.15625  C 3.9765625 0.0520833333333324  4.34375 0  4.625 0  C 4.77083333333333 0  4.88020833333333 0.0156250000000004  4.953125 0.0468749999999989  C 5.140625 0.109375000000001  5.41666666666667 0.505208333333333  5.78125 1.234375  C 5.89583333333333 1.43229166666666  6.05208333333333 1.71354166666666  6.25 2.078125  C 6.44791666666667 2.44270833333333  6.63020833333333 2.7734375  6.796875 3.0703125  C 6.96354166666667 3.3671875  7.125 3.64583333333333  7.28125 3.90625  C 7.3125 3.94791666666666  7.40364583333333 4.078125  7.5546875 4.296875  C 7.70572916666667 4.515625  7.81770833333333 4.70052083333333  7.890625 4.8515625  C 7.96354166666667 5.00260416666666  8 5.15104166666666  8 5.296875  C 8 5.50520833333333  7.8515625 5.765625  7.5546875 6.078125  C 7.2578125 6.390625  6.93489583333333 6.67708333333333  6.5859375 6.9375  C 6.23697916666667 7.19791666666666  5.9140625 7.47395833333333  5.6171875 7.765625  C 5.3203125 8.05729166666667  5.171875 8.296875  5.171875 8.484375  C 5.171875 8.578125  5.19791666666667 8.6953125  5.25 8.8359375  C 5.30208333333333 8.9765625  5.34635416666667 9.08333333333333  5.3828125 9.15625  C 5.41927083333333 9.22916666666666  5.4921875 9.35416666666667  5.6015625 9.53125  C 5.7109375 9.70833333333333  5.77083333333333 9.80729166666667  5.78125 9.828125  C 6.57291666666667 11.2552083333333  7.47916666666667 12.4791666666667  8.5 13.5  C 9.52083333333333 14.5208333333333  10.7447916666667 15.4270833333333  12.171875 16.21875  C 12.1927083333333 16.2291666666667  12.2916666666667 16.2890625  12.46875 16.3984375  C 12.6458333333333 16.5078125  12.7708333333333 16.5807291666667  12.84375 16.6171875  C 12.9166666666667 16.6536458333333  13.0234375 16.6979166666667  13.1640625 16.75  C 13.3046875 16.8020833333333  13.421875 16.828125  13.515625 16.828125  C 13.703125 16.828125  13.9427083333333 16.6796875  14.234375 16.3828125  C 14.5260416666667 16.0859375  14.8020833333333 15.7630208333333  15.0625 15.4140625  C 15.3229166666667 15.0651041666667  15.609375 14.7421875  15.921875 14.4453125  C 16.234375 14.1484375  16.4947916666667 14  16.703125 14  C 16.8489583333333 14  16.9973958333333 14.0364583333333  17.1484375 14.109375  C 17.2994791666667 14.1822916666667  17.484375 14.2942708333333  17.703125 14.4453125  C 17.921875 14.5963541666667  18.0520833333333 14.6875  18.09375 14.71875  C 18.3541666666667 14.875  18.6328125 15.0364583333333  18.9296875 15.203125  C 19.2265625 15.3697916666667  19.5572916666667 15.5520833333333  19.921875 15.75  C 20.2864583333333 15.9479166666667  20.5677083333333 16.1041666666667  20.765625 16.21875  C 21.4947916666667 16.5833333333333  21.890625 16.859375  21.953125 17.046875  Z " fill-rule="nonzero" fill="#000000" stroke="none" transform="matrix(1 0 0 1 66 255 )" />
  </g>
</svg>